# xmcd CD database file
#
# Track frame offsets:
#	150
#	18132
#	37786
#	48830
#	65805
#	77072
#	91181
#	108752
#	121746
#	139059
#	153638
#	166883
#	182719
#	197747
#	211243
#	228681
#	241174
#	257700
#	272673
#	287172
#
# Disc length: 4048 seconds
#
# Revision: 1
# Processed by: cddbd v1.5.1PL0 Copyright (c) Steve Scherf et al.
# Submitted via: CDex 1.51
#
DISCID=0a0fce14
DTITLE=Alan Jackson - The Greatest Hits Collection
DYEAR=1995
DGENRE=Country
TTITLE0=Chattahoochie
TTITLE1=Gone Country
TTITLE2=She's Got The Rhythm (And I Got The Blue's)
TTITLE3=Midnight In Montgomery
TTITLE4=Tall, Tall Trees
TTITLE5=Chasin' That Neon Rainbow
TTITLE6=I'll Try
TTITLE7=Don't Rock The Jukebox
TTITLE8=Livin' On Love
TTITLE9=Summertime Blues
TTITLE10=Love's Got A Hold On You
TTITLE11=(Who Says) You Can't Have It All
TTITLE12=Home
TTITLE13=Wanted
TTITLE14=I Don't Even Know Your Name
TTITLE15=Dallas
TTITLE16=Here In The Real World
TTITLE17=Someday
TTITLE18=Mercury Blues
TTITLE19=I'd Love You All Over Again
EXTD=YEAR: 1995
EXTT0=
EXTT1=
EXTT2=
EXTT3=
EXTT4=
EXTT5=
EXTT6=
EXTT7=
EXTT8=
EXTT9=
EXTT10=
EXTT11=
EXTT12=
EXTT13=
EXTT14=
EXTT15=
EXTT16=
EXTT17=
EXTT18=
EXTT19=
PLAYORDER=
